<svg width="65" height="30" viewBox="0 0 65 30" fill="none" xmlns="http://www.w3.org/2000/svg">
    <path d="M55.9476 27.6877C55.3659 27.106 55.0751 26.3934 55.0751 25.55V14.1195C55.0751 12.9561 54.5079 12.3744 53.3736 12.3744C52.2102 12.3744 51.6285 11.7927 51.6285 10.6292V10.193C51.6285 9.02956 52.2102 8.44786 53.3736 8.44786C54.5079 8.44786 55.0751 7.86615 55.0751 6.70274V4.4341C55.0751 3.27069 55.6568 2.68898 56.8202 2.68898H57.3001C58.4635 2.68898 59.0452 3.27069 59.0452 4.4341V6.70274C59.0452 7.86615 59.6269 8.44786 60.7903 8.44786H62.5354C63.6989 8.44786 64.2806 9.02956 64.2806 10.193V10.6292C64.2806 11.7927 63.6989 12.3744 62.5354 12.3744H60.7903C59.6269 12.3744 59.0452 12.9561 59.0452 14.1195V24.2848C59.0452 25.4482 59.6269 26.0299 60.7903 26.0299H62.5354C63.6989 26.0299 64.2806 26.6116 64.2806 27.775V28.2549C64.2806 29.4183 63.6989 30 62.5354 30H59.5251C58.6817 30 57.9691 29.7092 57.3874 29.1274L55.9476 27.6877Z" fill="#404040"/>
    <path d="M12.0977 29.9788C10.9343 29.9788 10.3526 29.3971 10.3526 28.2337V12.9203C10.3526 12.0769 10.6434 11.3643 11.2251 10.7826L12.6649 9.34285C13.2466 8.76115 13.9592 8.4703 14.8026 8.4703L25.3933 8.4703C26.5567 8.4703 27.1384 9.052 27.1384 10.2154V10.6953C27.1384 11.8176 26.5971 12.3986 25.5144 12.4383C25.4747 12.4397 15.8908 12.4404 15.8497 12.4404C14.8317 12.4404 14.3227 13.0221 14.3227 14.1855V28.2337C14.3227 29.3971 13.741 29.9788 12.5776 29.9788H12.0977Z" fill="#404040"/>
    <path d="M0.654417 3.35934C0.218139 2.92306 0 2.47224 0 2.00688C0 1.54152 0.218139 1.09069 0.654417 0.654417C1.0907 0.218139 1.54152 0 2.00688 0C2.47224 0 2.92306 0.218139 3.35934 0.654417C3.79562 1.09069 4.01376 1.54152 4.01376 2.00688C4.01376 2.47224 3.79562 2.92306 3.35934 3.35934C2.92306 3.79562 2.47224 4.01376 2.00688 4.01376C1.54152 4.01376 1.0907 3.79562 0.654417 3.35934ZM1.78874 27.9654C0.625332 27.9654 0.0436279 27.3837 0.0436279 26.2203V8.1584C0.0436279 6.99499 0.625332 6.41329 1.78874 6.41329H2.22502C3.38843 6.41329 3.97013 6.99499 3.97013 8.1584V26.2203C3.97013 27.3837 3.38843 27.9654 2.22502 27.9654H1.78874Z" fill="#404040"/>
    <path d="M49.4773 12.2588L49.4773 18.0595C49.4773 19.5813 48.8728 21.0408 47.7967 22.1169C46.7206 23.193 45.2611 23.7975 43.7393 23.7975L21.1289 23.7975L24.398 20.5778C24.8706 20.1124 24.541 19.3082 23.8778 19.3082C23.6837 19.3082 23.4974 19.3843 23.3588 19.5202L18.7749 24.0142C18.4804 24.3029 18.4804 24.771 18.7749 25.0598L23.3588 29.5537C23.4974 29.6896 23.6837 29.7657 23.8778 29.7657C24.541 29.7657 24.8706 28.9615 24.398 28.4961L21.1289 25.2764L43.8412 25.2764C45.7282 25.2764 47.5379 24.5268 48.8722 23.1925C50.2066 21.8582 50.9562 20.0484 50.9562 18.1613L50.9562 12.1668C50.9562 10.2751 50.1968 8.4626 48.8483 7.13588C47.5282 5.837 45.7504 5.10906 43.8984 5.10906L23.7786 5.10906C23.6405 5.10906 23.5286 5.22099 23.5286 5.35906V6.27078C23.5286 6.40885 23.6405 6.52078 23.7786 6.52078L43.7393 6.52078C45.2611 6.52078 46.7206 7.12531 47.7967 8.20139C48.8728 9.27748 49.4773 10.737 49.4773 12.2588Z" fill="#404040"/>
    <path d="M31.1243 19.7379L29.7435 18.3637C29.1855 17.8085 28.9066 17.1284 28.9066 16.3233V4.2474C28.9066 3.44233 29.1855 2.76219 29.7435 2.20698L31.1243 0.832822C31.6822 0.277607 32.3657 0 33.1747 0H42.2862C43.0952 0 43.7786 0.277607 44.3366 0.832822L45.6756 2.16534C46.2335 2.77608 46.5124 3.4701 46.5124 4.2474V16.3233C46.5682 17.1006 46.2893 17.7947 45.6756 18.4054L44.3366 19.7379C43.7786 20.2931 43.0952 20.5707 42.2862 20.5707H33.1747C32.3657 20.5707 31.6822 20.2931 31.1243 19.7379ZM32.7144 15.1157C32.7144 16.2262 33.2723 16.7814 34.3881 16.7814H41.0309C42.1467 16.7814 42.7046 16.2262 42.7046 15.1157V5.45499C42.7046 4.34456 42.1467 3.78934 41.0309 3.78934H34.3881C33.2723 3.78934 32.7144 4.34456 32.7144 5.45499V15.1157Z" fill="#404040"/>
    <path d="M20.5 5.375C20.5 5.23693 20.6119 5.125 20.75 5.125H21.75C21.8881 5.125 22 5.23693 22 5.375V6.25C22 6.38807 21.8881 6.5 21.75 6.5H20.75C20.6119 6.5 20.5 6.38807 20.5 6.25V5.375Z" fill="#404040"/>
</svg>
